<svg width="24" height="21" viewBox="0 0 24 21" fill="none" xmlns="http://www.w3.org/2000/svg">
<path d="M11.9756 8.43288C15.3375 8.43288 18.6871 8.43288 22.0489 8.43288C23.2145 8.43288 23.9998 9.14284 23.9875 10.1711C23.9875 10.9789 23.4354 11.6644 22.6379 11.8236C22.4047 11.8725 22.1471 11.8848 21.914 11.8848C15.3007 11.8848 8.67513 11.8848 2.06185 11.8848C1.22752 11.8848 0.528158 11.6522 0.160072 10.8443C-0.367518 9.69367 0.466811 8.45736 1.81646 8.43288C2.9698 8.4084 4.11086 8.43288 5.2642 8.43288C7.50953 8.43288 9.75485 8.43288 12.0002 8.43288H11.9756Z" fill="white"/>
<path d="M11.9756 16.694C15.3375 16.694 18.6871 16.694 22.0489 16.694C23.2145 16.694 23.9998 17.4039 23.9875 18.4322C23.9875 19.2401 23.4354 19.9255 22.6379 20.0847C22.4047 20.1336 22.1471 20.1459 21.914 20.1459C15.3007 20.1459 8.67513 20.1459 2.06185 20.1459C1.22752 20.1459 0.528158 19.9133 0.160072 19.1054C-0.367518 17.9548 0.466811 16.7185 1.81646 16.694C2.9698 16.6695 4.11086 16.694 5.2642 16.694C7.50953 16.694 9.75485 16.694 12.0002 16.694H11.9756Z" fill="white"/>
<path d="M11.9879 3.58552C8.61382 3.58552 5.2397 3.58552 1.86557 3.58552C0.552733 3.58552 -0.293866 2.50833 0.0987595 1.33322C0.307342 0.684466 0.773584 0.305003 1.43614 0.194837C1.71834 0.145874 2.00054 0.145874 2.28274 0.145874C8.77333 0.145874 15.2516 0.145874 21.7422 0.145874C21.9876 0.145874 22.233 0.145875 22.4784 0.182597C23.3864 0.292764 24.0121 1.01497 23.9998 1.90854C23.9876 2.78987 23.3005 3.51207 22.4048 3.57328C21.9385 3.61 21.46 3.58552 20.9938 3.58552C18 3.58552 14.994 3.58552 12.0002 3.58552H11.9879Z" fill="white"/>
</svg>
